<?xml version="1.0" standalone="no"?>
<!DOCTYPE svg PUBLIC "-//W3C//DTD SVG 20010904//EN"
 "http://www.w3.org/TR/2001/REC-SVG-20010904/DTD/svg10.dtd">
<svg version="1.0" xmlns="http://www.w3.org/2000/svg"
 width="283.000000pt" height="283.000000pt" viewBox="0 0 283.000000 283.000000"
 preserveAspectRatio="xMidYMid meet">
<metadata>
Created by potrace 1.14, written by Peter Selinger 2001-2017
</metadata>
<g transform="translate(0.000000,283.000000) scale(0.100000,-0.100000)"
fill="#000000" stroke="none">
<path d="M1297 2504 c-1 -1 -36 -5 -77 -8 -41 -4 -93 -12 -115 -18 -22 -6 -43
-11 -47 -10 -4 1 -25 -5 -47 -13 -23 -8 -43 -14 -46 -15 -3 0 -7 -1 -10 -1 -3
-1 -8 -2 -12 -3 -49 -13 -93 -31 -93 -39 0 -6 -3 -7 -6 -4 -4 3 -16 1 -28 -5
-11 -7 -27 -13 -34 -14 -8 -1 -22 -10 -33 -20 -10 -9 -19 -14 -19 -10 0 4 -13
-2 -29 -13 -15 -11 -30 -18 -33 -16 -3 3 -16 -5 -30 -17 -14 -13 -31 -24 -38
-26 -13 -3 -100 -63 -100 -68 0 -2 14 -38 30 -80 55 -137 74 -271 57 -385 -11
-72 -60 -148 -134 -209 -45 -36 -88 -46 -113 -25 -8 7 -31 17 -51 23 -31 8
-43 6 -75 -12 -26 -14 -56 -21 -89 -21 l-50 0 -5 -55 c-3 -30 -4 -80 -2 -110
l4 -55 59 1 c32 1 59 -2 59 -6 0 -4 14 -13 30 -20 35 -14 95 -8 119 13 42 38
141 -21 205 -121 75 -118 67 -316 -20 -510 -13 -29 -24 -56 -24 -60 0 -12 119
-88 220 -141 137 -71 317 -132 435 -146 28 -3 66 -8 85 -11 41 -6 225 -6 255
-1 11 3 47 8 80 11 143 17 366 92 515 174 71 38 280 175 276 180 -2 1 -32 -11
-67 -27 -62 -29 -211 -76 -273 -86 -43 -8 -97 -17 -121 -21 -11 -2 -42 -6 -70
-9 -27 -4 -61 -8 -75 -10 -54 -8 -241 -18 -355 -18 -116 0 -123 2 -203 37
-189 82 -302 167 -357 268 -26 46 -29 63 -29 133 0 71 4 88 33 146 19 37 58
94 88 128 l55 61 469 0 c424 0 470 -2 476 -16 6 -17 -12 -78 -29 -98 -4 -6
-25 -33 -46 -61 -20 -27 -40 -51 -44 -53 -5 -2 -8 -7 -8 -11 0 -4 48 16 108
45 125 60 408 174 675 270 103 37 186 68 185 70 -4 3 -250 94 -268 98 -39 10
-466 180 -558 222 -39 19 -73 33 -75 31 -1 -1 -17 8 -34 21 -18 13 -33 21 -33
18 0 -6 30 -44 65 -82 11 -12 21 -27 23 -35 2 -7 11 -24 20 -38 19 -28 28 -80
15 -82 -4 -1 -218 -3 -476 -4 -379 -1 -469 1 -478 11 -6 8 -15 11 -20 8 -5 -3
-8 -1 -7 4 2 5 -16 30 -39 56 -23 25 -40 46 -37 46 2 0 -6 17 -19 38 -33 54
-49 115 -46 185 3 77 32 139 97 206 48 50 164 131 188 131 7 0 19 6 26 13 7 7
42 24 78 37 36 13 70 26 75 30 17 11 483 -2 505 -15 3 -1 35 -6 72 -9 77 -8
99 -12 180 -31 32 -7 58 -11 58 -8 0 3 6 1 13 -5 6 -5 36 -15 65 -21 29 -6 71
-20 93 -32 58 -29 69 -19 18 16 -24 17 -46 32 -49 35 -11 12 -163 95 -168 92
-2 -2 -8 0 -11 5 -7 10 -62 37 -76 38 -5 0 -12 3 -15 6 -6 7 -165 69 -195 76
-11 2 -27 5 -35 7 -8 1 -35 8 -59 15 -23 7 -45 10 -48 7 -3 -3 -13 -1 -23 4
-24 13 -290 34 -303 24z"/>
<path d="M2342 2144 c10 -10 20 -16 22 -13 3 3 -5 11 -17 18 -21 13 -21 12 -5
-5z"/>
</g>
</svg>
