<svg xmlns="http://www.w3.org/2000/svg" viewBox="0 0 1078 242.11"><g id="Layer_3" data-name="Layer 3"><path d="M633.55,588.24,537.7,487.09l.36,96.35H519V439.88h.73l95.84,102.49-.36-98.08h18.88v144Z" transform="translate(-519 -395.74)" style="fill:#001477"/><path d="M671.48,444.29h86.23v19.39H690.36v40.11h60.09v19.38H690.36v40.88h69.89v19.39H671.48Z" transform="translate(-519 -395.74)" style="fill:#001477"/><path d="M826.33,444.29q21.78,0,34.13,11.52t12.34,32.24a58,58,0,0,1-2.36,16.32,43.47,43.47,0,0,1-7.53,14.68,36.46,36.46,0,0,1-13.62,10.55q-8.44,3.95-20.6,3.94H809.26v49.9H790.39V444.29ZM828.51,514a26.76,26.76,0,0,0,12.43-2.59,21.21,21.21,0,0,0,7.81-6.62,27.21,27.21,0,0,0,4-8.35,29.67,29.67,0,0,0,1.18-7.77,31.19,31.19,0,0,0-2.18-11.13,21.73,21.73,0,0,0-7.53-9.79q-5.36-4-14.8-4H809.26V514Z" transform="translate(-519 -395.74)" style="fill:#001477"/><path d="M890,444.29h87.68v19.39H942.87V583.44H923.81V463.68H890Z" transform="translate(-519 -395.74)" style="fill:#001477"/><path d="M1022.38,533.73a31.74,31.74,0,0,0,4.08,16.12,30.83,30.83,0,0,0,11.16,11.32,29.89,29.89,0,0,0,15.62,4.23,31.06,31.06,0,0,0,27.32-15.55,31.74,31.74,0,0,0,4.08-16.12V444.29h18.7v90q0,15.35-6.72,26.77a46.9,46.9,0,0,1-18.06,17.66,54.59,54.59,0,0,1-50.65,0,46.27,46.27,0,0,1-18-17.66q-6.63-11.42-6.62-26.77v-90h19.06Z" transform="translate(-519 -395.74)" style="fill:#001477"/><path d="M1241,439.54v144h-18.88l.36-98.08L1126.64,587.9h-.73V444.34H1145l-.36,96.35,95.85-101.15Z" transform="translate(-519 -395.74)" style="fill:#001477"/><path d="M1324.46,513.73l.36.25H1324A2.46,2.46,0,0,0,1324.46,513.73Z" transform="translate(-519 -395.74)" style="fill:#0187b2"/><path d="M1597,528h-1.29l.64-.25Z" transform="translate(-519 -395.74)" style="fill:#0187b2"/><path d="M1324,513.73h.82l-.36.25A2.46,2.46,0,0,0,1324,513.73Z" transform="translate(-519 -395.74)" style="fill:#0187b2"/><path d="M1597,527.5l-.65.25-.64-.25Z" transform="translate(-519 -395.74)" style="fill:#0187b2"/><path d="M633.55,588.24,537.7,487.09l.36,96.35H519V439.88h.73l95.84,102.49-.36-98.08h18.88v144Z" transform="translate(-519 -395.74)" style="fill:#001560"/><path d="M671.48,444.29h86.23v19.39H690.36v40.11h60.09v19.38H690.36v40.88h69.89v19.39H671.48Z" transform="translate(-519 -395.74)" style="fill:#001560"/><path d="M826.33,444.29q21.78,0,34.13,11.52t12.34,32.24a58,58,0,0,1-2.36,16.32,43.47,43.47,0,0,1-7.53,14.68,36.46,36.46,0,0,1-13.62,10.55q-8.44,3.95-20.6,3.94H809.26v49.9H790.39V444.29ZM828.51,514a26.76,26.76,0,0,0,12.43-2.59,21.21,21.21,0,0,0,7.81-6.62,27.21,27.21,0,0,0,4-8.35,29.67,29.67,0,0,0,1.18-7.77,31.19,31.19,0,0,0-2.18-11.13,21.73,21.73,0,0,0-7.53-9.79q-5.36-4-14.8-4H809.26V514Z" transform="translate(-519 -395.74)" style="fill:#001560"/><path d="M890,444.29h87.68v19.39H942.87V583.44H923.81V463.68H890Z" transform="translate(-519 -395.74)" style="fill:#001560"/><path d="M1022.38,533.73a31.74,31.74,0,0,0,4.08,16.12,30.83,30.83,0,0,0,11.16,11.32,29.89,29.89,0,0,0,15.62,4.23,31.06,31.06,0,0,0,27.32-15.55,31.74,31.74,0,0,0,4.08-16.12V444.29h18.7v90q0,15.35-6.72,26.77a46.9,46.9,0,0,1-18.06,17.66,54.59,54.59,0,0,1-50.65,0,46.27,46.27,0,0,1-18-17.66q-6.63-11.42-6.62-26.77v-90h19.06Z" transform="translate(-519 -395.74)" style="fill:#001560"/><path d="M1241,439.54v144h-18.88l.36-98.08L1126.64,587.9h-.73V444.34H1145l-.36,96.35,95.85-101.15Z" transform="translate(-519 -395.74)" style="fill:#001560"/><path d="M1365.29,633.34c-31.24,0-61.51-10.45-90-31.08a4.5,4.5,0,0,1-1.28-5.84c.14-.26,14.28-26,8.12-46.21-2.36-7.74-7.29-13.56-15.06-17.77h-1.31a16.21,16.21,0,0,1-20.76,0H688.35a7.4,7.4,0,0,1-5.84,3,6.88,6.88,0,0,1-2.61-.53,16.69,16.69,0,0,1-10.17,3.54A17.44,17.44,0,0,1,655,530c-6.19-1.1-10.87-6-10.87-11.78,0-.19,0-.37,0-.56a10.57,10.57,0,0,1-.23-2.19c0-5.82,4.68-10.69,10.87-11.79a17.42,17.42,0,0,1,14.68-8.5,16.68,16.68,0,0,1,10.18,3.53,6.84,6.84,0,0,1,2.61-.52,7.42,7.42,0,0,1,5.84,3H1244.8a16.21,16.21,0,0,1,20.76,0h1.31c7.77-4.2,12.7-10,15.06-17.77,6.16-20.21-8-45.95-8.13-46.2a4.52,4.52,0,0,1,1.29-5.84c28.47-20.63,58.75-31.09,90-31.09,63.12,0,109.16,43.05,111.09,44.88a4.5,4.5,0,0,1-6.09,6.63c-23.12-20.56-85.4-22.16-103.94-22.16-3.51,0-6,.06-7.14.09-26.65,9.29-42,21.3-44.42,34.74-2.72,15.15,11.08,29.15,15.23,33h87.55c-1.66-3.89-7-11.49-14.33-19.47a4.5,4.5,0,0,1,6.11-6.57c10.3,8.18,60.38,27.24,100.13,41.07a4.48,4.48,0,0,1,2,1.39l.21.25a4.51,4.51,0,0,1-2,7.12c-39.75,13.83-89.83,32.89-100.13,41.07a4.5,4.5,0,0,1-6.11-6.57c7.37-8,12.68-15.58,14.34-19.47H1330c-4.14,3.81-18,17.81-15.23,33,2.41,13.44,17.77,25.45,44.42,34.75,1.12,0,3.63.08,7.14.08,18.54,0,80.82-1.6,103.94-22.15a4.5,4.5,0,0,1,6.09,6.62C1474.45,590.29,1428.41,633.34,1365.29,633.34Z" transform="translate(-519 -395.74)" style="fill:#002ba5"/><path d="M1365.08,404.74c60.92,0,105.28,41.07,108,43.64-24-21.3-85-23.29-106.93-23.29-5,0-8,.11-8,.11-87.21,30.07-30.07,76.68-30.07,76.68h93.22c5.85-4.39-13.91-25.84-15-27,14.33,11.39,92.89,38.83,101.45,41.8l.21.26c-8.56,3-87.12,30.42-101.45,41.8,1.08-1.17,20.84-22.63,15-27h-93.22s-57.14,46.61,30.07,76.69c0,0,3,.1,8,.1,21.9,0,83-2,106.93-23.29-2.71,2.57-47.08,43.64-108,43.64-26.65,0-56.46-7.85-87.35-30.23,0,0,28.6-51.12-9.75-70.67H1264a11.78,11.78,0,0,1-17.26,0H686.19v-.66c-1,2.27-2.26,3.67-3.68,3.67-1.06,0-2-.75-2.86-2.06a12.71,12.71,0,0,1-9.92,5.07c-5.15,0-9.61-3.34-11.9-8.27h-.13c-5,0-9-3.37-9-7.52a5.52,5.52,0,0,1,.08-.92,5.65,5.65,0,0,1-.29-1.83c0-4.15,4-7.52,9-7.52h.13c2.29-4.93,6.75-8.27,11.89-8.27a12.68,12.68,0,0,1,9.93,5.07c.83-1.31,1.8-2.06,2.86-2.06,1.42,0,2.73,1.39,3.68,3.66v-.66h560.57a11.78,11.78,0,0,1,17.26,0H1268c38.35-19.54,9.75-70.67,9.75-70.67,30.88-22.37,60.7-30.23,87.35-30.23m108.2,180.46h0M1365.08,395.74c-32.21,0-63.37,10.75-92.63,31.94a9,9,0,0,0-2.57,11.69c.13.22,13.34,24.38,7.74,42.71a24.6,24.6,0,0,1-11.2,14.13,20.66,20.66,0,0,0-23.13.43H690.05a11.72,11.72,0,0,0-7.75-3,10.51,10.51,0,0,0-1.78.14,20.89,20.89,0,0,0-11-3.15,21.71,21.71,0,0,0-17.41,9c-7.31,2.1-12.64,8.38-12.64,15.77a14.17,14.17,0,0,0,.22,2.53,1.62,1.62,0,0,0,0,.22c0,7.39,5.33,13.66,12.64,15.76a21.69,21.69,0,0,0,17.42,9,21,21,0,0,0,11-3.15,11.47,11.47,0,0,0,9.53-2.87H1243.5a20.68,20.68,0,0,0,23.13.44,24.55,24.55,0,0,1,11.2,14.12c5.6,18.34-7.61,42.49-7.75,42.73a9,9,0,0,0,2.58,11.67c29.26,21.2,60.42,31.94,92.63,31.94,27,0,54-7.39,80.19-22a179.18,179.18,0,0,0,33.89-24,9,9,0,0,0-6-15.63h-.06l-.57,0a8.91,8.91,0,0,0-3,.72h0a8.82,8.82,0,0,0-1.55.88h0a8.67,8.67,0,0,0-.82.65c-22,19.47-82.79,21-100.92,21-2.86,0-5,0-6.32-.06-24.6-8.68-38.7-19.4-40.81-31-2-10.86,7-22.25,12.55-27.7h77.9a122,122,0,0,1-9.73,11.92,9,9,0,0,0,12.21,13.15c9.18-7.3,57.66-26,98.81-40.35a9,9,0,0,0,4-14.22l-.21-.26a9.1,9.1,0,0,0-4-2.78c-41.16-14.32-89.63-33.05-98.81-40.34A9,9,0,0,0,1399.73,481a122,122,0,0,1,9.73,11.91h-77.9c-5.57-5.43-14.51-16.83-12.55-27.69,2.11-11.64,16.21-22.35,40.81-31,1.28,0,3.46-.07,6.32-.07,18.14,0,79,1.52,100.95,21a9,9,0,0,0,12.18-13.25c-1.36-1.29-13.86-12.93-34-24.13-26.25-14.59-53.23-22-80.2-22Z" transform="translate(-519 -395.74)" style="fill:#fff"/><rect x="118" y="3.2" width="881" height="118" style="fill:#fff;opacity:0.15"/></g></svg>