<?xml version="1.0" standalone="no"?>
<!DOCTYPE svg PUBLIC "-//W3C//DTD SVG 20010904//EN"
 "http://www.w3.org/TR/2001/REC-SVG-20010904/DTD/svg10.dtd">
<svg version="1.0" xmlns="http://www.w3.org/2000/svg"
 width="211.000000pt" height="211.000000pt" viewBox="0 0 211.000000 211.000000"
 preserveAspectRatio="xMidYMid meet">
<metadata>
Created by potrace 1.14, written by Peter Selinger 2001-2017
</metadata>
<g transform="translate(0.000000,211.000000) scale(0.100000,-0.100000)"
fill="#000000" stroke="none">
<path d="M1408 1940 l-3 -65 -140 -2 c-77 -1 -165 3 -195 9 -77 14 -169 53
-203 86 l-28 27 -31 -35 c-16 -19 -51 -59 -77 -89 -25 -30 -51 -59 -56 -65 -6
-6 -43 -49 -84 -96 -101 -117 -166 -190 -322 -365 -176 -198 -199 -224 -231
-253 -34 -31 -34 -35 -5 -65 53 -55 147 -159 217 -237 41 -47 77 -87 80 -90 3
-3 113 -129 244 -280 131 -151 244 -281 251 -289 11 -11 16 -10 34 8 29 29 84
55 167 80 59 17 97 21 227 21 l155 0 0 -58 c0 -31 0 -61 1 -65 1 -5 23 11 51
36 27 25 97 75 154 113 l104 67 -50 25 c-30 15 -91 66 -154 128 l-104 104 -1
-37 c0 -21 0 -62 1 -91 l2 -54 -209 4 c-201 3 -210 4 -265 30 -155 72 -281
190 -417 387 -28 41 -48 78 -44 82 16 14 81 30 148 37 123 12 540 4 655 -13
14 -2 65 -7 113 -10 49 -4 96 -8 105 -10 10 -2 29 -4 45 -4 l27 -1 0 -112 0
-113 19 31 c11 18 56 58 100 90 91 66 144 98 364 219 l58 32 -58 30 c-100 52
-207 113 -298 172 -84 54 -132 94 -162 135 l-23 30 0 -107 c0 -77 -4 -109 -12
-112 -14 -4 -82 -12 -198 -21 -41 -3 -86 -7 -99 -9 -54 -9 -326 -19 -464 -18
-146 1 -255 14 -302 35 -29 13 -28 18 58 137 122 170 283 306 413 350 57 19
189 26 407 22 l38 -1 -1 -72 c-1 -40 -1 -81 -1 -91 1 -12 30 12 94 76 87 89
173 157 196 157 25 0 4 19 -91 80 -55 36 -122 85 -149 110 l-48 45 -3 -65z"/>
</g>
</svg>
